<?xml version="1.0" encoding="UTF-8"?>
<!DOCTYPE svg PUBLIC "-//W3C//DTD SVG 1.1//EN" "http://www.w3.org/Graphics/SVG/1.1/DTD/svg11.dtd">
<!-- Creator: CorelDRAW X8 -->
<svg xmlns="http://www.w3.org/2000/svg" xml:space="preserve" width="8.26772in" height="5.82677in" version="1.1" style="shape-rendering:geometricPrecision; text-rendering:geometricPrecision; image-rendering:optimizeQuality; fill-rule:evenodd; clip-rule:evenodd"
viewBox="0 0 8268 5827"
 xmlns:xlink="http://www.w3.org/1999/xlink">
 <defs>
  <style type="text/css">
   <![CDATA[
    .fil1 {fill:#2B2A29}
    .fil2 {fill:#2B2A29;fill-rule:nonzero}
    .fil0 {fill:#EE007A;fill-rule:nonzero}
   ]]>
  </style>
 </defs>
 <g id="Layer_x0020_1">
  <metadata id="CorelCorpID_0Corel-Layer"/>
  <path class="fil0" d="M5477 1433l-71 -554 -62 0c-19,24 -43,81 -372,81l-1584 0c-329,0 -353,-57 -372,-81l-62 0 -71 554 81 0c28,-148 109,-301 381,-301l697 0 0 2796c0,286 -47,376 -310,376l0 82 931 0 0 -82c-263,0 -310,-90 -310,-376l0 -2796 662 0c272,0 353,153 381,301l81 0z"/>
  <path class="fil1" d="M3902 3019l-720 0 0 -762c0,-252 41,-356 291,-356l0 -76 -872 0 0 76c246,0 291,86 291,356l0 1696c0,270 -45,356 -291,356l0 77 872 0 0 -77c-246,0 -291,-86 -291,-356l0 -789 720 0 0 -145z"/>
  <path class="fil1" d="M4485 3019l610 0 0 -762c0,-252 -41,-356 -291,-356l0 -76 872 0 0 76c-246,0 -291,86 -291,356l0 1696c0,270 45,356 291,356l0 77 -872 0 0 -77c246,0 291,-86 291,-356l0 -789 -610 0 0 -145z"/>
  <path class="fil0" d="M2372 4635l-9 -72 -8 0c-3,3 -6,10 -49,10l-160 0c-42,0 -45,-7 -48,-10l-8 0 -9 72 10 0c4,-19 14,-39 50,-39l65 0 0 269c0,37 -6,49 -40,49l0 11 121 0 0 -11c-34,0 -41,-12 -41,-49l0 -269 66 0c35,0 46,20 49,39l11 0z"/>
  <path class="fil0" d="M2752 4925l0 -11c-34,0 -41,-12 -41,-49l0 -232c0,-37 7,-49 41,-49l0 -11 -121 0 0 11c35,0 40,14 40,49l0 206c-21,41 -51,71 -99,71 -47,0 -84,-35 -84,-105l0 -185c0,-37 -21,-53 -42,-53 -21,0 -33,13 -43,29l9 9c5,-6 9,-11 18,-11 9,0 17,6 17,23l0 192c0,67 42,126 110,126 69,0 99,-43 114,-67l0 57 81 0z"/>
  <path class="fil0" d="M3157 4750c0,-113 -96,-177 -196,-177l-148 0 0 11c34,0 41,12 41,49l0 232c0,37 -7,49 -41,49l0 11 151 0c99,0 193,-60 193,-175zm-47 8c0,93 -62,144 -146,144l-34 0c-29,0 -36,-19 -36,-41l0 -268 54 0c90,0 162,57 162,165z"/>
  <path class="fil0" d="M3593 4749c0,-103 -81,-186 -190,-186 -109,0 -190,83 -190,186 0,103 81,186 190,186 109,0 190,-83 190,-186zm-51 -19c15,103 -42,179 -115,189 -72,9 -149,-48 -163,-151 -15,-102 42,-178 115,-188 72,-10 148,47 163,150z"/>
  <path class="fil0" d="M3959 4896l-8 -8c-8,8 -15,14 -23,14 -10,0 -16,-4 -23,-13l-89 -127c40,-14 75,-49 75,-94 0,-57 -44,-95 -114,-95l-126 0 0 11c34,0 40,12 40,49l0 232c0,37 -6,49 -40,49l0 11 121 0 0 -11c-35,0 -40,-14 -40,-49l0 -96 40 0 97 138c13,19 25,24 40,24 31,0 46,-28 50,-35zm-108 -228c0,43 -33,88 -78,88l-41 -7 0 -156 37 0c56,0 82,27 82,75z"/>
  <path class="fil2" d="M4330 4925l0 -11c-34,0 -41,-12 -41,-49l0 -232c0,-37 7,-49 41,-49l0 -11 -121 0 0 11c34,0 40,12 40,49l0 104 -185 0 0 -104c0,-35 5,-49 40,-49l0 -11 -121 0 0 11c34,0 41,12 41,49l0 232c0,37 -7,49 -41,49l0 11 121 0 0 -11c-34,0 -40,-12 -40,-49l0 -108 185 0 0 108c0,37 -6,49 -40,49l0 11 121 0z"/>
  <path class="fil2" d="M4712 4925l0 -11c-24,0 -42,-6 -57,-48l-87 -246c-8,-23 2,-37 24,-37l0 -10 -112 0 0 10c23,0 32,14 24,37l-87 246c-15,42 -32,48 -57,48l0 11 104 0 0 -11c-18,0 -40,-5 -26,-46l28 -81 119 0 28 81c15,41 -8,46 -26,46l0 11 125 0zm-134 -159l-104 0 52 -147 52 147z"/>
  <path class="fil2" d="M4992 4849l-11 0c-10,27 -28,53 -71,53l-58 0c-22,0 -29,-9 -29,-41l0 -228c0,-37 6,-49 40,-49l0 -11 -120 0 0 11c34,0 40,12 40,49l0 232c0,37 -6,49 -40,49l0 11 228 0 21 -76z"/>
  <path class="fil2" d="M5350 4925l0 -11c-24,0 -42,-6 -56,-48l-88 -246c-8,-23 2,-37 24,-37l0 -10 -112 0 0 10c23,0 32,14 24,37l-87 246c-15,42 -32,48 -57,48l0 11 104 0 0 -11c-18,0 -40,-5 -26,-46l28 -81 119 0 29 81c14,41 -8,46 -26,46l0 11 124 0zm-134 -159l-104 0 52 -147 52 147z"/>
  <path class="fil2" d="M5623 4635l-10 -72 -8 0c-2,3 -5,10 -48,10l-160 0c-43,0 -46,-7 -48,-10l-8 0 -10 72 11 0c4,-19 14,-39 49,-39l66 0 0 269c0,37 -6,49 -40,49l0 11 120 0 0 -11c-34,0 -40,-12 -40,-49l0 -269 66 0c35,0 45,20 49,39l11 0z"/>
  <path class="fil2" d="M5783 4925l0 -11c-34,0 -40,-12 -40,-49l0 -232c0,-37 6,-49 40,-49l0 -11 -120 0 0 11c34,0 40,12 40,49l0 232c0,37 -6,49 -40,49l0 11 120 0z"/>
  <path class="fil2" d="M6191 4925l0 -11c-34,0 -40,-12 -40,-49l0 -232c0,-37 6,-49 40,-49l0 -11 -121 0 0 11c35,0 40,14 40,49l0 206c-21,41 -51,71 -99,71 -47,0 -84,-35 -84,-105l0 -185c0,-37 -21,-53 -42,-53 -21,0 -33,13 -43,29l9 9c5,-6 10,-11 18,-11 9,0 17,6 17,23l0 192c0,67 43,126 111,126 68,0 98,-43 113,-67l0 57 81 0z"/>
 </g>
</svg>
