<?xml version="1.0" encoding="UTF-8"?>
<!DOCTYPE svg PUBLIC "-//W3C//DTD SVG 1.1//EN" "http://www.w3.org/Graphics/SVG/1.1/DTD/svg11.dtd">
<!-- Creator: CorelDRAW X8 -->
<svg xmlns="http://www.w3.org/2000/svg" xml:space="preserve" width="1233px" height="1223px" version="1.1" style="shape-rendering:geometricPrecision; text-rendering:geometricPrecision; image-rendering:optimizeQuality; fill-rule:evenodd; clip-rule:evenodd"
viewBox="0 0 1233 1223"
 xmlns:xlink="http://www.w3.org/1999/xlink">
 <defs>
  <style type="text/css">
   <![CDATA[
    .fil0 {fill:#2B2A29}
    .fil2 {fill:#2B2A29;fill-rule:nonzero}
    .fil1 {fill:#EE007A;fill-rule:nonzero}
   ]]>
  </style>
 </defs>
 <g id="Layer_x0020_1">
  <metadata id="CorelCorpID_0Corel-Layer"/>
  <path class="fil0" d="M726 642l206 0 0 -229c0,-75 -12,-106 -88,-106l0 -23 262 0 0 23c-74,0 -87,25 -87,106l0 509c0,81 13,107 87,107l0 23 -262 0 0 -23c74,0 88,-26 88,-107l0 -237 -206 0 0 -43z"/>
  <path class="fil0" d="M544 642l-216 0 0 -229c0,-75 12,-106 87,-106l0 -23 -261 0 0 23c73,0 87,25 87,106l0 509c0,81 -14,107 -87,107l0 23 261 0 0 -23c-73,0 -87,-26 -87,-107l0 -237 216 0 0 -43z"/>
  
  <path class="fil1" d="M1019 166l-21 -166 -19 0c-6,7 -13,24 -112,24l-475 0c-98,0 -106,-17 -111,-24l-19 0 -21 166 24 0c8,-44 33,-90 114,-90l209 0 0 838c0,86 -14,114 -93,114l0 24 280 0 0 -24c-79,0 -93,-28 -93,-114l0 -838 198 0c82,0 106,46 115,90l24 0z"/>
 </g>
</svg>
