<?xml version="1.0" encoding="UTF-8"?>
<!DOCTYPE svg PUBLIC "-//W3C//DTD SVG 1.1//EN" "http://www.w3.org/Graphics/SVG/1.1/DTD/svg11.dtd">
<!-- Creator: CorelDRAW X8 -->
<svg xmlns="http://www.w3.org/2000/svg" xml:space="preserve" width="1233px" height="1223px" version="1.1" style="shape-rendering:geometricPrecision; text-rendering:geometricPrecision; image-rendering:optimizeQuality; fill-rule:evenodd; clip-rule:evenodd"
viewBox="0 0 1233 1223"
 xmlns:xlink="http://www.w3.org/1999/xlink">
 <defs>
  <style type="text/css">
   <![CDATA[
    .fil0 {fill:#FFFFFF}
    .fil2 {fill:#FFFFFF;fill-rule:nonzero}
    .fil1 {fill:#EE007A;fill-rule:nonzero}
   ]]>
  </style>
 </defs>
 <g id="Layer_x0020_1">
  <metadata id="CorelCorpID_0Corel-Layer"/>
  <path class="fil0" d="M726 642l206 0 0 -229c0,-75 -12,-106 -88,-106l0 -23 262 0 0 23c-74,0 -87,25 -87,106l0 509c0,81 13,107 87,107l0 23 -262 0 0 -23c74,0 88,-26 88,-107l0 -237 -206 0 0 -43z"/>
  <path class="fil0" d="M544 642l-216 0 0 -229c0,-75 12,-106 87,-106l0 -23 -261 0 0 23c73,0 87,25 87,106l0 509c0,81 -14,107 -87,107l0 23 261 0 0 -23c-73,0 -87,-26 -87,-107l0 -237 216 0 0 -43z"/>
  <g id="_1953650361072">
   <path class="fil1" d="M87 1133l-2 -22 -3 0c-1,1 -1,3 -14,3l-48 0c-13,0 -14,-2 -15,-3l-2 0 -3 22 3 0c1,-6 4,-12 15,-12l20 0 0 81c0,11 -2,14 -12,14l0 4 36 0 0 -4c-10,0 -12,-3 -12,-14l0 -81 19 0c11,0 14,6 15,12l3 0zm114 87l0 -4c-10,0 -12,-3 -12,-14l0 -70c0,-11 2,-15 12,-15l0 -3 -36 0 0 3c11,0 12,4 12,15l0 62c-6,12 -15,21 -30,21 -14,0 -25,-10 -25,-31l0 -56c0,-11 -6,-16 -13,-16 -6,0 -9,4 -12,9l2 3c2,-2 3,-4 6,-4 2,0 5,2 5,7l0 58c0,20 13,38 33,38 21,0 30,-13 34,-21l0 18 24 0zm122 -53c0,-34 -29,-53 -59,-53l-44 0 0 3c10,0 12,4 12,15l0 70c0,11 -2,14 -12,14l0 4 45 0c30,0 58,-18 58,-53zm-14 3c0,27 -19,43 -44,43l-10 0c-9,0 -11,-6 -11,-13l0 -80 16 0c27,0 49,17 49,50zm145 -3c0,-31 -25,-56 -57,-56 -33,0 -57,25 -57,56 0,31 24,56 57,56 32,0 57,-25 57,-56zm-16 -6c5,31 -12,54 -34,57 -22,3 -45,-15 -49,-45 -5,-31 13,-54 34,-57 22,-3 45,14 49,45zm125 50l-2 -3c-2,3 -4,5 -7,5 -3,0 -5,-1 -7,-4l-26 -38c12,-4 22,-15 22,-28 0,-18 -13,-29 -34,-29l-38 0 0 3c10,0 12,4 12,15l0 70c0,11 -2,14 -12,14l0 4 36 0 0 -4c-10,0 -12,-4 -12,-14l0 -29 12 0 29 41c4,6 8,7 13,7 9,0 13,-8 14,-10zm-32 -68c0,12 -10,26 -23,26l-13 -2 0 -47 12 0c16,0 24,8 24,23z"/>
   <path class="fil2" d="M675 1220l0 -4c-11,0 -12,-3 -12,-14l0 -70c0,-11 1,-15 12,-15l0 -3 -37 0 0 3c11,0 13,4 13,15l0 31 -56 0 0 -31c0,-10 2,-15 12,-15l0 -3 -36 0 0 3c10,0 12,4 12,15l0 70c0,11 -2,14 -12,14l0 4 36 0 0 -4c-10,0 -12,-3 -12,-14l0 -33 56 0 0 33c0,11 -2,14 -13,14l0 4 37 0zm114 0l0 -4c-7,0 -12,-1 -17,-14l-26 -74c-2,-7 1,-11 7,-11l0 -3 -33 0 0 3c7,0 9,4 7,11l-26 74c-5,13 -10,14 -17,14l0 4 31 0 0 -4c-5,0 -12,-1 -8,-14l9 -24 35 0 9 24c4,13 -3,14 -8,14l0 4 37 0zm-40 -48l-31 0 15 -44 16 44zm125 25l-4 0c-3,8 -8,16 -21,16l-18 0c-6,0 -8,-3 -8,-13l0 -68c0,-11 2,-15 12,-15l0 -3 -36 0 0 3c10,0 12,4 12,15l0 70c0,11 -2,14 -12,14l0 4 68 0 7 -23zm107 23l0 -4c-8,0 -13,-1 -17,-14l-26 -74c-3,-7 0,-11 7,-11l0 -3 -34 0 0 3c7,0 10,4 7,11l-26 74c-4,13 -9,14 -17,14l0 4 31 0 0 -4c-5,0 -12,-1 -7,-14l8 -24 36 0 8 24c4,13 -2,14 -8,14l0 4 38 0zm-41 -48l-31 0 16 -44 15 44zm123 -39l-3 -22 -3 0c0,1 -1,3 -14,3l-48 0c-13,0 -14,-2 -15,-3l-2 0 -3 22 3 0c1,-6 5,-12 15,-12l20 0 0 81c0,11 -2,14 -12,14l0 4 36 0 0 -4c-10,0 -12,-3 -12,-14l0 -81 20 0c10,0 13,6 14,12l4 0zm48 87l0 -4c-10,0 -12,-3 -12,-14l0 -70c0,-11 2,-15 12,-15l0 -3 -36 0 0 3c10,0 12,4 12,15l0 70c0,11 -2,14 -12,14l0 4 36 0zm122 0l0 -4c-10,0 -12,-3 -12,-14l0 -70c0,-11 2,-15 12,-15l0 -3 -36 0 0 3c10,0 12,4 12,15l0 62c-6,12 -16,21 -30,21 -14,0 -25,-10 -25,-31l0 -56c0,-11 -7,-16 -13,-16 -6,0 -10,4 -13,9l3 3c2,-2 3,-4 6,-4 2,0 5,2 5,7l0 58c0,20 12,38 33,38 20,0 29,-13 34,-21l0 18 24 0z"/>
  </g>
  <path class="fil1" d="M1019 166l-21 -166 -19 0c-6,7 -13,24 -112,24l-475 0c-98,0 -106,-17 -111,-24l-19 0 -21 166 24 0c8,-44 33,-90 114,-90l209 0 0 838c0,86 -14,114 -93,114l0 24 280 0 0 -24c-79,0 -93,-28 -93,-114l0 -838 198 0c82,0 106,46 115,90l24 0z"/>
 </g>
</svg>
